<svg xmlns="http://www.w3.org/2000/svg" viewBox="19815.359 5663 79.563 79.563"><defs><style>.a{fill:#00008f;}.b{fill:#ff1721;}.c{fill:#fff;}</style></defs><g transform="translate(19815.36 5663)"><rect class="a" width="79.562" height="79.562" transform="translate(0.001 0.001)"/><path class="b" d="M55.172,39.292,85.431,0H80.962L50.6,39.292Z" transform="translate(-5.869)"/><path class="c" d="M60.794,62.338c1.387,3.88,4.244,13.976,5.38,14.781h-7.5a12.511,12.511,0,0,0-.352-2.648c-.323-1.154-3.037-9.884-3.037-9.884H43.366l-1.874,2.656s2.25,7.044,2.39,7.39c.243.622,1.317,2.486,1.317,2.486h-7.19s-.186-1.076-.256-1.524c-.056-.362-.681-2.344-.681-2.344A21.331,21.331,0,0,0,35,75.865c-.448.826-.647,1.254-.647,1.254H28.728s-.188-1.076-.258-1.524c-.055-.362-.743-2.5-.743-2.5A28.39,28.39,0,0,0,25.7,75.83c-.445.828-.637,1.288-.637,1.288H19.5s1.572-1.5,2.121-2.139c.926-1.09,4.379-5.6,4.379-5.6l-1.384-4.791H12.795s-6.743,8.86-7.009,9.134a26.952,26.952,0,0,0-2.278,3.4H0V74.888a1.682,1.682,0,0,1,.138-.134c.108-.08,5.112-6.291,9.709-12.415C13.978,57,17.853,51.8,18.193,51.308a34.624,34.624,0,0,0,2.01-3.78h6.114a27.34,27.34,0,0,0,.367,2.953c.159.51,3.884,12.732,3.972,12.864l2.06-2.634L29.2,49.873A19.3,19.3,0,0,0,28.1,47.529h7.142a6.221,6.221,0,0,0,.233,1.942c.291.894,1.821,6.418,1.821,6.418s4.871-6.106,5.156-6.544a3.958,3.958,0,0,0,.6-1.816h5.951a18.55,18.55,0,0,0-3,3.211c-.641.813-6.925,8.8-6.925,8.8s.548,1.869.816,2.8c.073.267.123.448.123.467s.138-.162.377-.467c1.621-2.054,9-11.725,9.443-12.552a18.438,18.438,0,0,0,1.2-2.257h5.805a14.959,14.959,0,0,0,.311,2.213Zm-8.834-9.154c-.852,1.834-5.87,7.942-5.87,7.942h7.946s-1.54-4.743-1.809-5.812a8.486,8.486,0,0,1-.156-2.078C52.07,53.139,52.053,52.982,51.959,53.184Zm-30.53,0c-.852,1.834-5.87,7.942-5.87,7.942h7.946s-1.539-4.743-1.808-5.812a8.486,8.486,0,0,1-.156-2.078c0-.1-.019-.255-.112-.052ZM33.392,71.705l2.187-3c-.2-.217-1.434-3.952-1.434-3.952l-2.115,2.744Z" transform="translate(0 -5.512)"/></g></svg>