<svg xmlns="http://www.w3.org/2000/svg" viewBox="16034 2536 64 44.675"><defs><style>.a{fill:#fff;}</style></defs><g transform="translate(16034 2458.7)"><path class="a" d="M104.162,324.325a4.762,4.762,0,1,0-4.762-4.763A4.769,4.769,0,0,0,104.162,324.325Zm0-7.487a2.725,2.725,0,1,1-2.725,2.725A2.731,2.731,0,0,1,104.162,316.837Z" transform="translate(-86.975 -207.812)"/><path class="a" d="M341.163,314.8a4.762,4.762,0,1,0,4.763,4.762A4.769,4.769,0,0,0,341.163,314.8Zm0,7.487a2.725,2.725,0,1,1,2.725-2.725A2.731,2.731,0,0,1,341.163,322.287Z" transform="translate(-294.35 -207.812)"/><path class="a" d="M58.006,112.05h3.238a1.025,1.025,0,0,0,0-2.05H58.006a7.779,7.779,0,0,0-4.65,2.012l-8.187,8.7a1.046,1.046,0,0,0-.2,1.1,1.012,1.012,0,0,0,.938.613H85.431a1.02,1.02,0,0,0,.925-1.45l-4.2-9.037A4.029,4.029,0,0,0,79.106,110H65.331a1.03,1.03,0,0,0-1.025,1.025v9.362H48.281l6.563-6.975a6.114,6.114,0,0,1,3.162-1.362Zm8.338,0H79.106a2.316,2.316,0,0,1,1.2.762l3.525,7.575H66.343V112.05Z" transform="translate(-39.281 -28.612)"/><path class="a" d="M64,102.725a9.761,9.761,0,0,0-6.237-8.662l-4.775-1.588a4.513,4.513,0,0,1-2.213-1.963l-4.2-8.925a8.029,8.029,0,0,0-6.75-4.287h-21.1A11.794,11.794,0,0,0,11.1,80.6l-9.413,10A7.046,7.046,0,0,0,0,94.85v12.825a5.119,5.119,0,0,0,5.113,5.112H7.025a10.214,10.214,0,0,0,20.325,0h6.2a1.025,1.025,0,1,0,0-2.05h-6.2a10.214,10.214,0,0,0-20.325,0H5.113a3.067,3.067,0,0,1-3.063-3.062V94.85a4.983,4.983,0,0,1,1.125-2.825l9.413-10a9.8,9.8,0,0,1,6.137-2.65H39.838a5.989,5.989,0,0,1,4.9,3.112l4.2,8.925a6.427,6.427,0,0,0,3.412,3.025l3.875,1.287a7.331,7.331,0,0,0-.1,1.175,6.876,6.876,0,0,0,5.838,6.788v3.987a2.841,2.841,0,0,1-2.537,3.063H56.988a10.213,10.213,0,1,0,0,2.05h2.438A4.866,4.866,0,0,0,64,107.675v-4.95Zm-46.812.85a8.175,8.175,0,1,1-8.175,8.175A8.186,8.186,0,0,1,17.188,103.575Zm29.625,16.35a8.175,8.175,0,1,1,8.175-8.175A8.186,8.186,0,0,1,46.813,119.925Zm11.35-23.037c0-.137,0-.262.013-.4a8.075,8.075,0,0,1,3.662,5.075,4.812,4.812,0,0,1-3.675-4.675Z"/></g></svg>