<svg xmlns="http://www.w3.org/2000/svg" viewBox="19985.221 5663 186.387 79.563"><defs><style>.a{fill:#005baa;}.b{fill:#f58220;}</style></defs><g transform="translate(19985.22 5663)"><path class="a" d="M9.982,0h69.9V6.647H26.623a6.642,6.642,0,0,0-6.651,6.63V66.313a6.637,6.637,0,0,0,6.651,6.619H79.887v6.63H9.982A9.953,9.953,0,0,1,0,69.631V9.957A9.972,9.972,0,0,1,9.982,0m109.84,6.637a6.647,6.647,0,0,0-6.651,6.647V66.313a6.656,6.656,0,0,0,13.312,0V13.284a6.655,6.655,0,0,0-6.661-6.647m26.623,6.537v53.11a5.358,5.358,0,0,0,.068.926v.114l.026.05.009.052v.044l.011.039.009.055,0,.052v.054l.021.028.011.055.019.059v.055l.026.037.007.095.03.053a1.7,1.7,0,0,0,.08.3l.059.187.085.175.046.126c.03.066.043.136.08.206l.064.134.055.084.039.106.037.072.068.111a6.467,6.467,0,0,0,.622.921c.048.049.1.1.157.166a6.145,6.145,0,0,0,1.041.967,2.919,2.919,0,0,0,.454.3l.1.085a7.318,7.318,0,0,0,1.412.63,1.867,1.867,0,0,0,.224.068c.169.047,1.79.185,1.79.185a14.913,14.913,0,0,0,0-29.654V36.3a14.9,14.9,0,0,0,2.2-29.245,7.085,7.085,0,0,0-1.585-.364,4.574,4.574,0,0,0-.614-.052,6.647,6.647,0,0,0-6.656,6.537m25.551,24.54a21.533,21.533,0,0,1-7.108,41.849H86.523v-6.63a6.634,6.634,0,0,0,6.666-6.619V13.283a6.649,6.649,0,0,0-6.666-6.647V0h76.4a2.461,2.461,0,0,1,.405.022,19.928,19.928,0,0,1,12.342,4.427A18.946,18.946,0,0,1,183.058,19.8V19.9a18.537,18.537,0,0,1-.26,3.226A19.989,19.989,0,0,1,172,37.715"/><path class="b" d="M33.882,41.511A26.63,26.63,0,1,1,60.5,68.045,26.567,26.567,0,0,1,33.882,41.511M63,29.344A21.555,21.555,0,0,0,74.074,24.73a21.536,21.536,0,0,0-11.08-4.621v9.235ZM46.942,24.73a21.564,21.564,0,0,0,11.069,4.614V20.109A21.55,21.55,0,0,0,46.942,24.73m11.069,9.61a26.55,26.55,0,0,1-14.582-6.054,21.444,21.444,0,0,0-4.416,10.745h19V34.341ZM77.6,28.286A26.57,26.57,0,0,1,63,34.34v4.693H82.008A21.514,21.514,0,0,0,77.6,28.286M58.011,53.676a21.57,21.57,0,0,0-11.077,4.633,21.791,21.791,0,0,0,11.077,4.62V53.676Zm16.063,4.633a21.518,21.518,0,0,0-11.08-4.633v9.253a21.736,21.736,0,0,0,11.08-4.619m-11.08-9.638A26.525,26.525,0,0,1,77.6,54.73a21.437,21.437,0,0,0,4.413-10.724H62.995v4.665ZM43.43,54.73a26.53,26.53,0,0,1,14.582-6.058V44.006h-19A21.372,21.372,0,0,0,43.428,54.73" transform="translate(-3.929 -1.739)"/></g></svg>