<?xml version="1.0" encoding="utf-8"?>
<!-- Generator: Adobe Illustrator 22.0.1, SVG Export Plug-In . SVG Version: 6.00 Build 0)  -->
<svg version="1.1" id="Layer_1" xmlns="http://www.w3.org/2000/svg" xmlns:xlink="http://www.w3.org/1999/xlink" x="0px" y="0px"
	 viewBox="0 0 209.499 174.76" style="enable-background:new 0 0 209.499 174.76;" xml:space="preserve">
<style type="text/css">
	.st0{fill:#FFFFFF;}
</style>
<path class="st0" d="M167.199,0L0,104.305l117.6271,70.455l85.073-18.151l6.799-57.507L167.199,0z M121.2101,166.916l-86.056-56.812
	l114.796-59.733l32.9469,54.951l1.8091,46.777L121.2101,166.916z"/>
<path class="st0" d="M144.1859,76.7767l-33.9451,15.5551l19.299,36.077l-0.3839,0.128l-44.6371-24.417l-25.0609,11.484
	c5.4879,2.323,10.942,4.63,16.301,6.897c5.2129,2.205,10.3369,4.372,15.323,6.4821c4.8529,2.054,9.5769,4.054,14.13,5.9839
	c4.4369,1.88,8.7159,3.697,12.799,5.433c0.589,0.251,1.1689,0.508,1.738,0.77c0.5669,0.262,1.1219,0.528,1.6659,0.8
	c0.541,0.27,1.0701,0.545,1.5861,0.823c0.514,0.277,1.014,0.558,1.499,0.843c0.5759,0.339,0.996,0.678,1.265,1.011
	c0.267,0.332,0.386,0.66,0.359,0.977c-0.0271,0.316-0.196,0.623-0.504,0.916c-0.307,0.291-0.751,0.57-1.328,0.83
	c-0.1951,0.089-0.397,0.176-0.604,0.259c-0.2061,0.0829-0.418,0.163-0.6331,0.24c-0.2159,0.078-0.4359,0.152-0.6599,0.223
	c-0.223,0.071-0.4491,0.14-0.6781,0.205c-0.064,0.019-0.1279,0.037-0.193,0.055c-0.064,0.017-0.1289,0.035-0.194,0.052
	c-0.0649,0.018-0.13,0.035-0.1949,0.052c-0.0651,0.017-0.13,0.033-0.1951,0.05c-0.507,0.127-1.0179,0.248-1.532,0.366
	c-0.5129,0.118-1.0289,0.233-1.547,0.346c-0.517,0.113-1.036,0.225-1.556,0.337c-0.5189,0.112-1.0389,0.225-1.558,0.34l11.912,8.81
	c0.962-0.168,1.921-0.348,2.868-0.536c0.951-0.188,1.892-0.385,2.813-0.586c0.926-0.203,1.833-0.41,2.712-0.618
	c0.884-0.208,1.74-0.418,2.5609-0.625c1.2971-0.326,2.505-0.644,3.5891-0.939c1.09-0.297,2.054-0.569,2.856-0.801
	c0.806-0.232,1.446-0.423,1.886-0.5569c0.441-0.133,0.679-0.208,0.679-0.208c1.619-0.563,3.0901-1.177,4.3921-1.848
	c1.319-0.68,2.469-1.418,3.428-2.22c0.973-0.814,1.7529-1.695,2.316-2.649c0.574-0.97,0.9259-2.017,1.032-3.1479
	c0.053-0.524,0.084-1.054,0.094-1.5891c0.01-0.54-0.001-1.085-0.0341-1.634c-0.033-0.553-0.087-1.111-0.163-1.671
	c-0.076-0.565-0.1741-1.132-0.293-1.702c-0.6261-2.992-1.292-6.123-1.9961-9.401c-0.7389-3.436-1.522-7.043-2.3479-10.834
	c-0.869-3.988-1.7891-8.1899-2.7581-12.623c-1.025-4.685-2.11-9.644-3.254-14.901c-0.2159-0.981-0.4359-1.973-0.6589-2.98
	c-0.2261-1.018-0.457-2.052-0.692-3.107c-0.238-1.067-0.481-2.155-0.729-3.272C144.7069,79.1268,144.4498,77.9688,144.1859,76.7767"
	/>
</svg>
