<?xml version="1.0" encoding="utf-8"?>
<!-- Generator: Adobe Illustrator 22.1.0, SVG Export Plug-In . SVG Version: 6.00 Build 0)  -->
<svg version="1.1" id="Layer_1" xmlns="http://www.w3.org/2000/svg" xmlns:xlink="http://www.w3.org/1999/xlink" x="0px" y="0px"
	 viewBox="0 0 676.4667 203.3419" style="enable-background:new 0 0 676.4667 203.3419;" xml:space="preserve">
<style type="text/css">
	.st0{fill:#ED2330;}
	.st1{fill:none;}
</style>
<path class="st0" d="M71.223,79.076c-13.864,0.061-23.781,10.111-23.63,23.948c0.151,13.861,9.849,23.814,23.636,23.721
	c14.29-0.096,23.483-9.804,23.577-23.969C94.899,88.884,84.856,79.015,71.223,79.076 M0,101.921
	c0.4529-4.119,0.686-8.2759,1.397-12.35c2.74-15.678,9.475-29.215,21.909-39.527c9.044-7.501,19.499-11.492,31.199-12.4641
	c11.666-0.97,22.505,1.421,32.421,7.6461c2.641,1.658,5.021,3.731,7.826,5.843V0h46.824v166.035h-43.66
	c-0.708-4.003-1.423-8.047-2.215-12.526c-1.402,1.298-2.473,2.402-3.657,3.369c-12.046,9.835-25.89,13.066-41.099,10.959
	c-25.852-3.583-43.74-23.451-48.968-48.669c-0.842-4.06-1.064-8.247-1.578-12.375c-0.123-0.996-0.265-1.989-0.399-2.982
	C0,103.811,0,101.921,0,101.921z"/>
<path class="st0" d="M347.5805,39.6056l48.046,0.002c-2.269,6.581-4.371,12.729-6.508,18.865
	c-11.851,34.022-23.625,68.071-35.642,102.034c-2.346,6.631-5.226,13.15-8.587,19.325c-7.338,13.482-19.235,20.514-34.213,22.674
	c0,0-23.06,2.24-44.759-0.612l0.118-40.596c4.471,0.419,8.799,0.971,13.143,1.178c2.566,0.123,5.211-0.029,7.726-0.531
	c5.768-1.152,8.614-4.951,7.599-10.746c-0.847-4.84-2.143-9.666-3.831-14.283c-11.536-31.549-24.227-65.795-35.864-97.308
	l49.489-0.002l21.982,77.011h0.722L347.5805,39.6056z"/>
<path class="st0" d="M633.2313,90.0013c-1.8401-12.109-9.548-18.64-20.952-18.456c-12.172,0.197-19.649,9.241-20.99,18.456H633.2313
	z M666.5323,160.2393c-8.649,3.566-19.7041,6.144-28.9191,7.342c-11.532,1.5-23.088,1.567-34.594-0.066
	c-17.506-2.484-33.302-8.643-45.214-22.413c-7.613-8.8-11.877-19.192-13.516-30.633c-1.709-11.923-1.026-23.695,3.144-35.107
	c6.658-18.217,19.0909-30.864,37.2679-37.509c17.093-6.248,34.548-6.729,51.7839-0.752c20.229,7.015,32.948,21.2401,38.15,42.057
	c2.682,10.733,2.119,21.505,0.23,32.562h-83.751c1.772,7.753,6.3881,12.768,13.5341,15.557c6.328,2.47,12.9979,3.01,19.688,3.197
	c13.975,0.389,27.574-1.691,40.717-6.551c0.4199-0.156,0.8719-0.229,1.527-0.396"/>
<path class="st0" d="M399.9977,39.6056c0.238,0.887,30,85.597,44.3109,126.41l54.72,0.019
	c13.104-37.409,27.0641-76.929,40.2261-114.319c1.374-3.904,2.71-7.908,4.163-12.11h-49.155
	c-7.2679,25.6851-14.5199,51.403-21.7729,77.033c-0.2209,0.001-0.443,0.002-0.6639,0.003c-0.2921-0.933-0.604-1.86-0.873-2.8
	c-6.842-23.94-14.359-50.278-21.1381-74.236"/>
<path class="st0" d="M207.3794,166.0348h-46.6801V39.7878h43.383c0.782,4.868,1.582,9.845,2.437,15.165
	c10.924-14.902,24.93-19.588,42.306-14.71v43.801c-4.153-0.34-8.257-0.876-12.37-0.967c-5.849-0.129-11.596,0.534-16.945,3.266
	c-5.52,2.818-9.1,7.307-10.592,13.159c-0.9969,3.914-1.437,8.064-1.473,12.114c-0.155,17.236-0.066,34.473-0.066,51.711v2.708
	H207.3794z"/>
<rect x="-621.7666" y="-438.3295" class="st1" width="1920" height="1080"/>
</svg>
