<svg xmlns="http://www.w3.org/2000/svg" viewBox="16034 2629 64 43.65"><defs><style>.a{fill:#fff;}</style></defs><g transform="translate(16034 2547.6)"><path class="a" d="M96.688,106.1h-49.4a1.59,1.59,0,0,0-1.587,1.588v29.2a1.59,1.59,0,0,0,1.587,1.588h49.4a1.59,1.59,0,0,0,1.588-1.588V107.675a1.579,1.579,0,0,0-1.588-1.575Zm.212,30.775a.219.219,0,0,1-.212.212h-49.4a.219.219,0,0,1-.212-.212v-29.2a.219.219,0,0,1,.212-.213h49.4a.219.219,0,0,1,.213.213v29.2Z" transform="translate(-39.987 -21.613)"/><path class="a" d="M62.975,117.875H61.362V85.312A3.91,3.91,0,0,0,57.45,81.4H6.55a3.91,3.91,0,0,0-3.912,3.912v32.563H1.025A1.03,1.03,0,0,0,0,118.9v2.825a3.324,3.324,0,0,0,3.325,3.325h57.35A3.324,3.324,0,0,0,64,121.725V118.9A1.03,1.03,0,0,0,62.975,117.875ZM4.688,85.312A1.867,1.867,0,0,1,6.55,83.45h50.9a1.867,1.867,0,0,1,1.862,1.863v32.563H4.688V85.312Zm24.3,34.612h6.025v.538a.443.443,0,0,1-.437.438h-5.15a.443.443,0,0,1-.437-.437v-.538Zm32.963,1.8A1.28,1.28,0,0,1,60.675,123H3.325a1.28,1.28,0,0,1-1.275-1.275v-1.8H27.613v.538a1.8,1.8,0,0,0,1.8,1.8h5.15a1.8,1.8,0,0,0,1.8-1.8v-.538H61.925l.025,1.8Z"/></g></svg>