<svg xmlns="http://www.w3.org/2000/svg" viewBox="15361 2619 64 63.988"><defs><style>.a{fill:#fff;}</style></defs><g transform="translate(15361 2619)"><g transform="translate(8.5 56.5)"><path class="a" d="M70.137,452.362A1.237,1.237,0,0,0,69.25,452a1.291,1.291,0,0,0-.887.362,1.237,1.237,0,0,0-.363.888,1.314,1.314,0,0,0,.363.888,1.237,1.237,0,0,0,.887.362,1.291,1.291,0,0,0,.887-.362,1.237,1.237,0,0,0,.363-.888A1.291,1.291,0,0,0,70.137,452.362Z" transform="translate(-68 -452)"/></g><g transform="translate(56.55 22.5)"><path class="a" d="M454.538,180.363a1.237,1.237,0,0,0-.888-.363,1.314,1.314,0,0,0-.887.363,1.237,1.237,0,0,0-.363.887,1.291,1.291,0,0,0,.363.887,1.237,1.237,0,0,0,.887.363,1.314,1.314,0,0,0,.888-.363,1.268,1.268,0,0,0,0-1.775Z" transform="translate(-452.4 -180)"/></g><path class="a" d="M63.638.363A1.314,1.314,0,0,0,62.75,0H32a1.254,1.254,0,0,0-1.25,1.25V4.825L18.9,8a1.253,1.253,0,0,0-.888,1.525L24.15,32.438,18.837,37.75a3.751,3.751,0,0,0-3.1-1.638H3.75A3.761,3.761,0,0,0,0,39.862V60.237a3.761,3.761,0,0,0,3.75,3.75h12a3.742,3.742,0,0,0,3.638-2.85l1.487,1.3a6.293,6.293,0,0,0,4.138,1.55H62.75A1.254,1.254,0,0,0,64,62.737V1.25A1.291,1.291,0,0,0,63.638.363ZM17,60.25a1.254,1.254,0,0,1-1.25,1.25h-12A1.254,1.254,0,0,1,2.5,60.25V39.875a1.254,1.254,0,0,1,1.25-1.25H8.5v14.4a1.25,1.25,0,0,0,2.5,0v-14.4h4.75A1.254,1.254,0,0,1,17,39.875V60.25Zm3.75-50.163,10-2.675V12.05l-.837.225a1.282,1.282,0,0,0-.763.587,1.2,1.2,0,0,0-.125.95,3.383,3.383,0,0,1-2.375,4.125,1.258,1.258,0,0,0-.888,1.538l4.875,18.038H28.125L26.837,32.45a1.1,1.1,0,0,0-.212-.437Zm10,7.688v10.55l-2.275-8.437A5.881,5.881,0,0,0,30.75,17.775ZM48.713,61.5h-23.7a3.853,3.853,0,0,1-2.5-.937L19.5,57.938v-17.3l5.462-5.463.987,3.875a1.246,1.246,0,0,0,1.212.938H51.737a1.75,1.75,0,0,1,0,3.5h-12.6a1.25,1.25,0,0,0,0,2.5h16.5a1.75,1.75,0,0,1,0,3.5h-16.5a1.25,1.25,0,0,0,0,2.5H52.963a1.75,1.75,0,0,1,0,3.5H39.138a1.25,1.25,0,0,0,0,2.5H48.7a1.756,1.756,0,0,1,.013,3.513Zm12.787,0H52.575a4.271,4.271,0,0,0,0-3.5h.388a4.262,4.262,0,0,0,4.25-4.25,4.213,4.213,0,0,0-.45-1.9,4.255,4.255,0,0,0,2.287-6.637V29.375a1.25,1.25,0,0,0-2.5,0V43.6a4.436,4.436,0,0,0-.912-.1H55.6a4.307,4.307,0,0,0,.375-1.75,4.262,4.262,0,0,0-4.25-4.25H49.713a5.988,5.988,0,1,0-4.7,0H38.175V13.738A5.889,5.889,0,0,0,42.663,9.25h9.4a5.889,5.889,0,0,0,4.487,4.488v3.887a1.25,1.25,0,0,0,2.5,0v-5a1.254,1.254,0,0,0-1.25-1.25,3.372,3.372,0,0,1-3.362-3.363,1.254,1.254,0,0,0-1.25-1.25H41.55a1.254,1.254,0,0,0-1.25,1.25,3.372,3.372,0,0,1-3.362,3.363,1.254,1.254,0,0,0-1.25,1.25V37.5H33.25V2.5H61.5ZM47.375,35.487A3.487,3.487,0,1,1,50.862,32,3.489,3.489,0,0,1,47.375,35.487Z"/></g></svg>