<svg xmlns="http://www.w3.org/2000/svg" viewBox="16304.48 2526 46.52 64"><defs><style>.a{fill:#fff;}</style></defs><g transform="translate(16234.557 2526)"><g transform="translate(69.924)"><g transform="translate(0)"><path class="a" d="M111.053,44.425h0a10.228,10.228,0,0,0-1.989-1.022l-5.785-2.411L99.2,38.3a1.01,1.01,0,0,0-.121-.068V36.49a10.643,10.643,0,0,0,5.792-8.067,4.832,4.832,0,0,0,3.178-8.076V14.158A14.173,14.173,0,0,0,93.891,0H92.8A14.173,14.173,0,0,0,78.639,14.157v6.119a4.831,4.831,0,0,0,3.112,8.146,10.643,10.643,0,0,0,5.793,8.067V38.12l-4.251,2.805a1.011,1.011,0,0,0-.171.053L77.3,43.4a11.353,11.353,0,0,0-3.7,2.364A12,12,0,0,0,69.924,54.8v8.186A1.016,1.016,0,0,0,70.94,64h12a1.016,1.016,0,0,0,0-2.032h-3.13V54.425a1.016,1.016,0,0,0-2.032,0v7.542H71.956V54.8c0-7.32,5.793-9.4,6.036-9.483l.067-.025L82.9,43.27l5.238,18.7H86.123a1.016,1.016,0,0,0,0,2.032h29.3a1.018,1.018,0,0,0,1.016-1.018V54.8A11.863,11.863,0,0,0,111.053,44.425Zm-9.416-2.081-3.061,6.291-3.8-2.794,4.014-4.166a1.013,1.013,0,0,0,.275-.836,1.024,1.024,0,0,0,.009-.129v-.053Zm-6.174,6.522-.8,2.126H91.929l-.9-2.144,2.2-1.622Zm-5.9-7.987a1.021,1.021,0,0,0,.016-.171V38.678h0V37.256a10.591,10.591,0,0,0,2.694.347h2.083a10.6,10.6,0,0,0,2.694-.347v3.3l-3.783,3.927ZM107.281,23.6a2.807,2.807,0,0,1-2.311,2.758V20.846A2.807,2.807,0,0,1,107.281,23.6Zm-25.63,2.758a2.8,2.8,0,0,1,0-5.516Zm1.02-8.571h0a1.014,1.014,0,0,0-.1.005l-.032,0c-.023,0-.046.006-.069.011l-.043.011c-.018,0-.037.008-.054.014l-.049.018-.045.016-.054.026-.035.017c-.017.01-.034.021-.051.031l-.033.02c-.016.011-.031.023-.047.035l-.032.024c-.014.011-.027.024-.04.036l-.032.029c-.012.012-.024.025-.035.038s-.021.022-.031.034-.02.027-.03.04-.02.025-.028.038-.016.027-.025.04-.018.028-.026.043-.013.027-.02.041-.016.032-.023.048-.01.027-.015.041-.013.035-.019.052-.007.028-.011.042-.01.037-.014.055,0,.03-.007.045-.007.037-.008.056,0,.032,0,.048,0,.029,0,.044a4.8,4.8,0,0,0-.98.205v-4.84A12.138,12.138,0,0,1,92.795,2.032h1.1a12.139,12.139,0,0,1,12.125,12.125V19.02a4.794,4.794,0,0,0-1.046-.228s0-.008,0-.013c0-.022,0-.045,0-.067s0-.027-.005-.04-.005-.039-.009-.058-.007-.032-.011-.048-.008-.031-.012-.047-.011-.036-.018-.053-.009-.026-.014-.038-.016-.037-.024-.055l-.016-.034c-.009-.018-.019-.035-.029-.052l-.02-.034c-.01-.016-.021-.031-.032-.046l-.026-.035-.033-.038-.033-.036-.033-.032-.039-.036L104.577,18l-.043-.032-.038-.025-.044-.027L104.4,17.9l-.042-.02-.056-.022-.037-.013-.064-.018-.027-.008c-3.977-.9-5.176-5.913-5.188-5.962a1.016,1.016,0,0,0-1.814-.371C92.658,17.73,82.832,17.79,82.672,17.79Zm1.012,9.194v-7.2c2.6-.16,9.5-1.024,13.94-5.672a9.451,9.451,0,0,0,5.315,5.455v7.414a8.6,8.6,0,0,1-8.586,8.586H92.27A8.6,8.6,0,0,1,83.683,26.985Zm3.861,13.57v.154a1.018,1.018,0,0,0,.048.308,1.015,1.015,0,0,0,.259,1.034l3.868,3.768-3.826,2.816-3.061-6.291Zm1.671,17.707-1.993-7.114c.016,0,.031.011.047.014a1.017,1.017,0,0,0,.846-.168l1.232-.906.857,2.046Zm1.461,3.706,1.443-8.943H94.5l1.443,8.943Zm5.74-9.854.749-2,1.19.876a1.007,1.007,0,0,0,1.085.075L97.414,58.3Zm18,9.854h-5.825V54.426a1.016,1.016,0,0,0-2.032,0v7.542H98.5l5.209-18.6,4.6,1.918.064.024a8.139,8.139,0,0,1,1.575.816h0a9.767,9.767,0,0,1,4.464,8.668Z" transform="translate(-69.924)"/><path class="a" d="M247.051,185.494a1.016,1.016,0,1,0,0-2.032h-.75v-2.353a1.016,1.016,0,1,0-2.032,0v3.369a1.016,1.016,0,0,0,1.016,1.016Z" transform="translate(-222.476 -157.581)"/></g></g></g></svg>