<svg xmlns="http://www.w3.org/2000/svg" viewBox="15878 4232 30 30"><defs><style>.a{fill:#fff;}</style></defs><g transform="translate(15877.999 4232)"><g transform="translate(0.001 0)"><g transform="translate(0 0)"><path class="a" d="M27.986,7.5A14.994,14.994,0,0,0,.518,11.119a14.994,14.994,0,0,0,10.6,18.363A15.075,15.075,0,0,0,15.025,30,15,15,0,0,0,27.986,7.5Zm-.01,10.973a13.432,13.432,0,0,1-24.607,3.24A13.442,13.442,0,0,1,14.979,1.562a13.506,13.506,0,0,1,3.5.463,13.432,13.432,0,0,1,9.5,16.451Z" transform="translate(-0.001 0)"/></g></g><g transform="translate(10.104 7.797)"><path class="a" d="M184.513,138.869l-9.64-5.566a1.634,1.634,0,0,0-2.451,1.415V145.85a1.63,1.63,0,0,0,2.451,1.415l9.64-5.566a1.634,1.634,0,0,0,0-2.83Zm-.781,1.478-9.64,5.566a.072.072,0,0,1-.109-.063V134.718a.065.065,0,0,1,.036-.063.074.074,0,0,1,.037-.011.068.068,0,0,1,.035.011l9.64,5.566a.072.072,0,0,1,0,.126Z" transform="translate(-172.422 -133.082)"/></g><g transform="translate(15.673 3.448)"><path class="a" d="M276.02,63.283a11.774,11.774,0,0,0-7.658-4.422.781.781,0,0,0-.211,1.547,10.2,10.2,0,0,1,6.635,3.83.781.781,0,0,0,1.235-.956Z" transform="translate(-267.475 -58.855)"/></g></g></svg>