<svg xmlns="http://www.w3.org/2000/svg" viewBox="16297 2625 64 51.091"><defs><style>.a{fill:#fff;}</style></defs><g transform="translate(16297 2573.364)"><g transform="translate(0 51.636)"><g transform="translate(0 0)"><path class="a" d="M59.74,67.017H40.021L36.169,55.6a4.174,4.174,0,0,0-8.337,0L23.979,67.017H4.26A4.265,4.265,0,0,0,0,71.277v27.19a4.265,4.265,0,0,0,4.26,4.26H8.811a1.159,1.159,0,1,0,0-2.319H4.26a1.943,1.943,0,0,1-1.941-1.941V71.277A1.943,1.943,0,0,1,4.26,69.336H59.74a1.943,1.943,0,0,1,1.941,1.941v27.19a1.943,1.943,0,0,1-1.941,1.941H12.522a1.16,1.16,0,0,0,0,2.319H59.74A4.265,4.265,0,0,0,64,98.467V71.277A4.265,4.265,0,0,0,59.74,67.017ZM32,53.955a1.855,1.855,0,1,1-1.855,1.855A1.857,1.857,0,0,1,32,53.955ZM26.427,67.017l2.747-8.139a4.164,4.164,0,0,0,5.652,0l2.747,8.139Z" transform="translate(0 -51.636)"/></g></g><g transform="translate(31.934 78.063)"><path class="a" d="M263.92,263.051a1.159,1.159,0,0,0-1.159,1.159v7.362l-5.154-7.991a1.159,1.159,0,0,0-2.134.628v11.3a1.16,1.16,0,1,0,2.319,0v-7.362l5.154,7.991a1.16,1.16,0,0,0,2.134-.628v-11.3A1.16,1.16,0,0,0,263.92,263.051Z" transform="translate(-255.472 -263.051)"/></g><g transform="translate(9.256 78.063)"><path class="a" d="M79.411,270.949a4.139,4.139,0,0,0-1.738-7.9H75.209a1.159,1.159,0,0,0-1.159,1.16v11.3a1.159,1.159,0,1,0,2.319,0v-4.179h.613l2.561,4.73a1.159,1.159,0,1,0,2.039-1.1Zm-1.735-1.935H76.369v-3.642h1.3a1.821,1.821,0,0,1,0,3.642Z" transform="translate(-74.05 -263.053)"/></g><g transform="translate(21.001 78.063)"><path class="a" d="M174.547,271.05a1.16,1.16,0,1,0,0-2.319H170.33V265.37h4.217a1.16,1.16,0,1,0,0-2.319h-5.377a1.159,1.159,0,0,0-1.159,1.16v11.3a1.159,1.159,0,0,0,1.159,1.159h5.377a1.16,1.16,0,1,0,0-2.319H170.33v-3.3h4.217Z" transform="translate(-168.011 -263.051)"/></g><g transform="translate(48.243 87.346)"><g transform="translate(0 0)"><path class="a" d="M387.1,337.319a1.159,1.159,0,0,0-1.159,1.159v2.016a1.16,1.16,0,1,0,2.319,0v-2.016A1.16,1.16,0,0,0,387.1,337.319Z" transform="translate(-385.944 -337.319)"/></g></g><g transform="translate(44.061 78.063)"><path class="a" d="M362.013,263.051H353.65a1.16,1.16,0,1,0,0,2.319h3.022V270.4a1.16,1.16,0,0,0,2.319,0V265.37h3.022a1.16,1.16,0,1,0,0-2.319Z" transform="translate(-352.49 -263.051)"/></g></g></svg>