<svg xmlns="http://www.w3.org/2000/svg" viewBox="15663 2526 54.575 64"><defs><style>.a{fill:#fff;}</style></defs><g transform="translate(15625.3 2526)"><g transform="translate(37.7)"><path class="a" d="M91.287,11.05A106.288,106.288,0,0,1,65.675.188a1.331,1.331,0,0,0-1.362,0A103.542,103.542,0,0,1,38.687,11.05a1.339,1.339,0,0,0-.987,1.3V26.1A39.611,39.611,0,0,0,49.712,55.013C55.612,60.8,62.487,64,64.987,64s9.375-3.2,15.275-8.987A39.562,39.562,0,0,0,92.275,26.1V12.35A1.339,1.339,0,0,0,91.287,11.05Zm-1.7,15.05A36.946,36.946,0,0,1,78.375,53.088c-5.8,5.688-12.013,8.213-13.388,8.213S57.4,58.775,51.6,53.088A36.9,36.9,0,0,1,40.387,26.1V13.375A105.694,105.694,0,0,0,64.987,2.9a109.763,109.763,0,0,0,24.6,10.462Z" transform="translate(-37.7)"/><path class="a" d="M90.325,99.8a1.352,1.352,0,0,0-1.75-.762c-2.4.95-4.875,1.825-7.338,2.588a1.343,1.343,0,0,0-.937,1.287v5.2a1.35,1.35,0,0,0,2.7,0V103.9c2.213-.713,4.412-1.5,6.575-2.35A1.35,1.35,0,0,0,90.325,99.8Z" transform="translate(-74.975 -86.579)"/><path class="a" d="M171.525,88.888a1.383,1.383,0,0,0,.538-.112l.025-.013A1.346,1.346,0,1,0,171,86.3l-.025.012a1.337,1.337,0,0,0-.687,1.775A1.351,1.351,0,0,0,171.525,88.888Z" transform="translate(-153.613 -75.413)"/><path class="a" d="M313.419,345.735a1.335,1.335,0,0,0-1.863.387,32.871,32.871,0,0,1-3.875,4.838,34.667,34.667,0,0,1-3.862,3.438,1.351,1.351,0,0,0-.25,1.887,1.326,1.326,0,0,0,1.075.525,1.3,1.3,0,0,0,.813-.275,36.536,36.536,0,0,0,4.162-3.7,35.2,35.2,0,0,0,4.188-5.225A1.348,1.348,0,0,0,313.419,345.735Z" transform="translate(-270.094 -302.323)"/><path class="a" d="M277.389,432.126l-.075.05a1.348,1.348,0,0,0-.487,1.837,1.329,1.329,0,0,0,1.837.487l.087-.05a1.348,1.348,0,0,0,.487-1.837A1.365,1.365,0,0,0,277.389,432.126Z" transform="translate(-246.776 -377.951)"/><path class="a" d="M130.209,164.438a4.38,4.38,0,0,0-6.2,6.188l7.95,7.95a4.376,4.376,0,0,0,6.2,0l16.6-16.6a4.38,4.38,0,1,0-6.2-6.187l-13.5,13.5Zm20.25-6.738a1.684,1.684,0,1,1,2.375,2.387l-16.575,16.588a1.69,1.69,0,0,1-2.375,0l-7.95-7.95a1.684,1.684,0,0,1,2.375-2.388l5.8,5.8a1.366,1.366,0,0,0,.95.4,1.314,1.314,0,0,0,.95-.4Z" transform="translate(-112.097 -135.188)"/></g></g></svg>