<?xml version="1.0" encoding="utf-8"?>
<!-- Generator: Adobe Illustrator 22.1.0, SVG Export Plug-In . SVG Version: 6.00 Build 0)  -->
<svg version="1.1" id="Layer_1" xmlns="http://www.w3.org/2000/svg" xmlns:xlink="http://www.w3.org/1999/xlink" x="0px" y="0px"
	 viewBox="0 0 128 128" style="enable-background:new 0 0 128 128;" xml:space="preserve">
<style type="text/css">
	.st0{fill:#FFFFFF;}
</style>
<g>
	<rect id="XMLID_104_" width="128" height="128"/>
	<g>
		<path id="XMLID_103_" class="st0" d="M36.0023,55.4166v9.5131c0,3.1767-1.4061,4.4959-4.7043,4.4959
			c-3.2985,0-4.7046-1.3192-4.7046-4.4959V55h-3.1768C23.139,55,23,55.139,23,55.4166v9.6693c0,5.3121,3.3851,7.1695,8.298,7.1695
			c4.9126,0,8.2977-1.8574,8.2977-7.1695V55h-3.1768C36.1413,55,36.0023,55.139,36.0023,55.4166z"/>
		<path id="XMLID_102_" class="st0" d="M82.0544,57.7601c0.2604,0,0.3819-0.0866,0.4687-0.2776l0.9202-2.2742
			c0.0521-0.1387,0-0.2083-0.1391-0.2083h-12.794c-1.1977,0-1.6488,0.3645-1.6488,1.1805v14.7729
			c0,0.6944,0.3468,1.0069,1.2671,1.0069h11.9259c0.2604,0,0.3819-0.0869,0.4687-0.2777l0.9202-2.2742
			c0.0521-0.1389,0-0.2083-0.1391-0.2083h-10.919v-3.0033c0-1.0416,0.5729-1.5104,2.1177-1.5104h4.7393
			c0.2604,0,0.3817-0.0866,0.4687-0.2776l0.8855-2.1874c0.052-0.139,0-0.2083-0.1391-0.2083h-8.072v-4.2532H82.0544z"/>
		<path id="XMLID_98_" class="st0" d="M59.5319,63.02c1.3886-0.7291,1.9614-2.1004,1.9614-3.7148
			c0-3.7496-3.055-4.3052-6.2145-4.3052h-7.2216c-1.1978,0-1.6489,0.3645-1.6489,1.1805v14.7729
			c0,0.6944,0.347,1.0069,1.2671,1.0069h8.8881c3.3503,0,5.7458-1.3019,5.7458-4.687C62.3093,65.2421,61.4412,63.5235,59.5319,63.02
			z M49.9303,57.7254h5.6088c1.8748,0,2.3956,0.7062,2.3956,2.1699c0,1.4638-0.5208,2.1701-2.3956,2.1701h-5.6088V57.7254z
			 M56.1989,69.2348h-6.2685v-3.1074c0-1.0415,0.5728-1.5102,2.118-1.5102h4.1506c1.9962,0,2.5518,0.7639,2.5518,2.3262
			C58.7507,68.5058,58.1951,69.2348,56.1989,69.2348z"/>
		<path id="XMLID_95_" class="st0" d="M105.619,71.665l-3.8016-6.5271c1.8922-0.4859,3.4198-1.7358,3.4198-4.9126
			c0-4.1142-2.5519-5.2254-6.7702-5.2254h-7.2561c-1.1979,0-1.6492,0.3645-1.6492,1.1805v15.3631
			c0,0.2775,0.1389,0.4166,0.4166,0.4166h3.1072v-4.9474c0-1.0416,0.5729-1.5104,2.118-1.5104h3.1246l3.4372,6.1801
			c0.104,0.1734,0.2083,0.2777,0.4687,0.2777h3.229C105.6886,71.9603,105.6886,71.7692,105.619,71.665z M98.9878,62.8637h-5.9023
			v-5.1382h5.9023c2.2046,0,2.6908,0.8505,2.6908,2.5691C101.6785,62.0306,101.1923,62.8637,98.9878,62.8637z"/>
	</g>
</g>
</svg>
