<svg xmlns="http://www.w3.org/2000/svg" viewBox="15658 2644 64 13.354"><defs><style>.a{fill:#fff;}</style></defs><path class="a" d="M10.389,0h2.461V7.806c0,4.107-2.625,5.548-6.432,5.548S0,11.912,0,7.806V.313C0,.1.109,0,.326,0H2.788V7.683c0,2.461,1.088,3.481,3.631,3.481s3.644-1.02,3.644-3.481V.313C10.063.1,10.172,0,10.389,0ZM38.253,2.135V5.426h6.228c.109,0,.15.054.109.163l-.68,1.686a.343.343,0,0,1-.367.218H39.885c-1.2,0-1.632.367-1.632,1.169v2.325h8.431c.109,0,.15.054.109.163l-.707,1.754a.343.343,0,0,1-.367.218H36.485c-.707,0-.979-.245-.979-.775V.911c0-.639.354-.911,1.278-.911h9.9c.109,0,.15.054.109.15l-.707,1.768a.343.343,0,0,1-.367.218ZM30.434,9.492c0,2.625-1.849,3.631-4.447,3.631H19.106c-.721,0-.979-.245-.979-.775V.911c0-.639.34-.911,1.278-.911h5.589c2.448,0,4.814.422,4.814,3.332A3,3,0,0,1,28.285,6.2,3.088,3.088,0,0,1,30.434,9.492Zm-9.6-4.025H25.2c1.441,0,1.849-.558,1.849-1.7S26.64,2.081,25.2,2.081H20.833Zm6.84,3.78c0-1.21-.422-1.809-1.972-1.809H22.479c-1.2,0-1.645.367-1.645,1.169v2.434H25.7C27.252,11.042,27.673,10.444,27.673,9.247Zm36.172,3.876h-2.5a.371.371,0,0,1-.367-.218L58.325,8.118H55.891c-1.2,0-1.645.367-1.645,1.169v3.835H51.852a.284.284,0,0,1-.326-.313V.911C51.525.272,51.879,0,52.8,0H58.42c3.277,0,5.249.857,5.249,4.039,0,2.461-1.183,3.427-2.652,3.808l2.951,5.045C64.023,12.973,64.023,13.123,63.846,13.123Zm-2.937-9.03c0-1.333-.367-1.985-2.081-1.985H54.245V6.079h4.583C60.541,6.079,60.908,5.439,60.908,4.093Z" transform="translate(15658 2644)"/></svg>