<svg xmlns="http://www.w3.org/2000/svg" viewBox="15363 2526 61.996 64"><defs><style>.a{fill:#fff;}</style></defs><g transform="translate(15355 2526.035)"><g transform="translate(8 -0.035)"><g transform="translate(0)"><path class="a" d="M67.946,37.454h-.962V28.83a4.06,4.06,0,0,0-1.712-3.312V24.343a3.094,3.094,0,0,0-3.087-3.087h-.712l2.737-4.012a2.962,2.962,0,0,0-.775-4.1L44.86.482A2.893,2.893,0,0,0,42.648.02,2.928,2.928,0,0,0,40.76,1.257L24.724,24.78H20.262l1.075-10.887a.332.332,0,0,1,.2-.275,6.975,6.975,0,0,0,3.387-2.75.307.307,0,0,1,.3-.137l7,.687a.911.911,0,0,0,.187-1.812l-7-.687a2.165,2.165,0,0,0-2.025.975A5.146,5.146,0,0,1,20.9,11.919a2.123,2.123,0,0,0-1.375,1.8L18.437,24.793H17.274l1.7-17.249a1.126,1.126,0,0,1,1.237-1.012l14.137,1.4a.911.911,0,0,0,.187-1.812l-14.149-1.4a2.94,2.94,0,0,0-3.225,2.65L15.787,21.256H13.45a3.094,3.094,0,0,0-3.087,3.087v.8A4.063,4.063,0,0,0,8,28.83V59.915a4.057,4.057,0,0,0,4.05,4.05H62.934a4.049,4.049,0,0,0,4.05-4.05V51.291h.962A2.059,2.059,0,0,0,70,49.241V39.5A2.059,2.059,0,0,0,67.946,37.454ZM62.184,23.08h0a1.259,1.259,0,0,1,1.262,1.262v.462a3.41,3.41,0,0,0-.512-.037H59.059l1.162-1.7h1.962ZM42.26,2.282a1.153,1.153,0,0,1,.725-.475,1.232,1.232,0,0,1,.212-.025,1.071,1.071,0,0,1,.637.2L62.4,14.631a1.139,1.139,0,0,1,.3,1.575l-5.837,8.562h-1.4l2.862-4.2a2.142,2.142,0,0,0,.1-2.262,5.112,5.112,0,0,1-.612-3.15,2.153,2.153,0,0,0-.925-2.05L47.26,6.544a2.127,2.127,0,0,0-2.237-.112,5.114,5.114,0,0,1-3.15.587,2.138,2.138,0,0,0-2.062.925L28.349,24.768h-1.4Zm.4,15.486a7.525,7.525,0,0,0-7.5,7H30.536L41.3,8.981h0a.326.326,0,0,1,.262-.137H41.6a7.008,7.008,0,0,0,4.287-.787.3.3,0,0,1,.337.025l9.624,6.562a.33.33,0,0,1,.137.3,6.974,6.974,0,0,0,.825,4.275.328.328,0,0,1-.013.337l-3.55,5.225H50.16A7.526,7.526,0,0,0,42.66,17.768Zm5.675,7.012H37a5.692,5.692,0,0,1,11.337,0Zm-36.148-.437A1.259,1.259,0,0,1,13.45,23.08H15.6l-.162,1.7h-3.25ZM9.825,28.83a2.23,2.23,0,0,1,2.225-2.225H62.934a2.23,2.23,0,0,1,2.225,2.225v2.525H9.825ZM65.159,59.915a2.23,2.23,0,0,1-2.225,2.225H12.05a2.23,2.23,0,0,1-2.225-2.225V57.391h4.912a.912.912,0,1,0,0-1.825H9.825V33.192H65.159v4.275H56.5a6.914,6.914,0,0,0-6.225,3.9c0,.012-.013.012-.013.025s-.012.037-.025.062a6.893,6.893,0,0,0-.35.887h0a6.908,6.908,0,0,0,6.6,8.962h8.674v4.275H20.587a.912.912,0,1,0,0,1.825H65.171v2.512Zm3.012-10.674a.224.224,0,0,1-.225.225H56.5A5.1,5.1,0,0,1,52.022,46.8l-.112-.225a2.984,2.984,0,0,1-.187-.462,5.056,5.056,0,0,1,0-3.5c.062-.15.125-.312.187-.462l.112-.225A5.1,5.1,0,0,1,56.5,39.267H67.946a.224.224,0,0,1,.225.225v9.749Z" transform="translate(-8 0.035)"/></g></g><g transform="translate(53.009 40.667)"><path class="a" d="M371.8,325.6a3.7,3.7,0,1,0,3.7,3.7A3.707,3.707,0,0,0,371.8,325.6Zm0,5.575a1.875,1.875,0,1,1,1.875-1.875A1.872,1.872,0,0,1,371.8,331.175Z" transform="translate(-368.1 -325.6)"/></g></g></svg>